<svg xmlns="http://www.w3.org/2000/svg" viewBox="0 0 512 512">
  <defs>
    <linearGradient id="bg" x1="0%" x2="100%" y1="0%" y2="100%">
      <stop offset="0%" stop-color="#2563eb" />
      <stop offset="100%" stop-color="#1d4ed8" />
    </linearGradient>
  </defs>
  <rect width="512" height="512" rx="112" fill="url(#bg)" />
  <circle cx="384" cy="132" r="46" fill="#93c5fd" opacity="0.6" />
  <path
    d="M332 152c-23-19-52-28-86-28-64 0-108 32-108 83 0 54 43 69 93 81 40 10 62 17 62 39 0 20-18 32-48 32-32 0-62-13-89-39l-38 46c30 31 75 50 126 50 75 0 122-37 122-94 0-57-44-72-96-84-39-9-59-15-59-35 0-18 16-28 43-28 26 0 50 9 73 28z"
    fill="#ffffff"
  />
</svg>
